HIERARCHY
ROOT Hips
{
  OFFSET 46.5963 99.068 34.354
  CHANNELS 6 Xposition Yposition Zposition Zrotation Xrotation Yrotation
  JOINT spine
  {
    OFFSET 0 8.30104 0.477351
    CHANNELS 3 Zrotation Xrotation Yrotation
    JOINT spine1
    {
      OFFSET 0 10.4565 0
      CHANNELS 3 Zrotation Xrotation Yrotation
      JOINT spine2
      {
        OFFSET 0 10.0192 0
        CHANNELS 3 Zrotation Xrotation Yrotation
        JOINT Neck
        {
          OFFSET 0 25.7235 1.22641
          CHANNELS 3 Zrotation Xrotation Yrotation
          JOINT Head
          {
            OFFSET 0 7.77175 0
            CHANNELS 3 Zrotation Xrotation Yrotation
            End Site
            {
              OFFSET 0 18.812 -6.20394
            }
          }
        }
        JOINT RightShoulder
        {
          OFFSET -4.2188 10.82 -0.587439
          CHANNELS 3 Zrotation Xrotation Yrotation
          JOINT RightArm
          {
            OFFSET 0 14.1914 0
            CHANNELS 3 Zrotation Xrotation Yrotation
            JOINT RightArmRoll
            {
              OFFSET 0 7.16408 0
              CHANNELS 3 Zrotation Xrotation Yrotation
              JOINT RightForeArm
              {
                OFFSET 0 20.8665 0
                CHANNELS 3 Zrotation Xrotation Yrotation
                JOINT RightForeArmRoll
                {
                  OFFSET 0 8.03922 0
                  CHANNELS 3 Zrotation Xrotation Yrotation
                  JOINT RightHand
                  {
                    OFFSET 0 16.133 0
                    CHANNELS 3 Zrotation Xrotation Yrotation
                    End Site
                    {
                      OFFSET 0 0 0
                    }
                  }
                }
              }
            }
          }
        }
        JOINT LeftShoulder
        {
          OFFSET 4.2188 10.82 -0.587439
          CHANNELS 3 Zrotation Xrotation Yrotation
          JOINT LeftArm
          {
            OFFSET 0 14.1914 0
            CHANNELS 3 Zrotation Xrotation Yrotation
            JOINT LeftArmRoll
            {
              OFFSET 0 7.16408 0
              CHANNELS 3 Zrotation Xrotation Yrotation
              JOINT LeftForeArm
              {
                OFFSET 0 20.8665 0
                CHANNELS 3 Zrotation Xrotation Yrotation
                JOINT LeftForeArmRoll
                {
                  OFFSET 0 8.03921 0
                  CHANNELS 3 Zrotation Xrotation Yrotation
                  JOINT LeftHand
                  {
                    OFFSET 0 16.133 0
                    CHANNELS 3 Zrotation Xrotation Yrotation
                    End Site
                    {
                      OFFSET 0 0 0
                    }
                  }
                }
              }
            }
          }
        }
      }
    }
  }
  JOINT RightUpLeg
  {
    OFFSET -7.35773 -1.34921 -1.13181
    CHANNELS 3 Zrotation Xrotation Yrotation
    JOINT RightUpLegRoll
    {
      OFFSET 0 18.9168 0
      CHANNELS 3 Zrotation Xrotation Yrotation
      JOINT RightLeg
      {
        OFFSET 0 -23.4256 0
        CHANNELS 3 Zrotation Xrotation Yrotation
        JOINT RightLegRoll
        {
          OFFSET 0 23.5023 0
          CHANNELS 3 Zrotation Xrotation Yrotation
          JOINT RightFoot
          {
            OFFSET 0 19.5617 0
            CHANNELS 3 Zrotation Xrotation Yrotation
            JOINT RightToeBase
            {
              OFFSET 0 16.3526 0
              CHANNELS 3 Zrotation Xrotation Yrotation
              End Site
              {
                OFFSET 0.00693125 7.91944 -0.912837
              }
            }
          }
        }
      }
    }
  }
  JOINT LeftUpLeg
  {
    OFFSET 7.35773 -1.34921 -1.13181
    CHANNELS 3 Zrotation Xrotation Yrotation
    JOINT LeftUpLegRoll
    {
      OFFSET 0 18.9169 0
      CHANNELS 3 Zrotation Xrotation Yrotation
      JOINT LeftLeg
      {
        OFFSET 0 23.4255 0
        CHANNELS 3 Zrotation Xrotation Yrotation
        JOINT LeftLegRoll
        {
          OFFSET 0 23.7195 0
          CHANNELS 3 Zrotation Xrotation Yrotation
          JOINT LeftFoot
          {
            OFFSET 0 19.3444 0
            CHANNELS 3 Zrotation Xrotation Yrotation
            JOINT LeftToeBase
            {
              OFFSET 0 16.3526 0
              CHANNELS 3 Zrotation Xrotation Yrotation
              End Site
              {
                OFFSET -0.0310629 7.91943 -0.912837
              }
            }
          }
        }
      }
    }
  }
}
MOTION
Frames: 11
Frame Time: 0.00208333
47.6696 74.7105 11.0297 0.132296 16.6957 -0.760681 0.183565 2.84429 -0.112243 0.376734 9.69095 -0.247004 0.381021 11.336 -0.254013 -5.38164 -20.2659 -0.779981 2.66905 -4.8462 -0.207603 51.1275 -6.21295 -3.44898 117.042 24.869 -26.9398 3.14724e-007 5.3961e-007 -5.17715e-006 30.7607 54.3513 -17.0615 -5.95939e-006 3.18976e-006 -3.00989 8.03023 -4.9512 0.697595 -56.5402 -6.07856 3.64817 -103.339 21.0466 27.7596 -7.95139e-015 -3.18055e-015 1.27222e-014 -24.2773 56.2181 12.7614 5.81007e-006 9.10023e-006 3.00729 -8.02985 -4.9509 -0.697568 137.348 69.7059 47.4643 180 1.52566e-005 179.027 158.924 76.5371 -164.866 2.09289e-006 -5.90369e-006 1.64066 -40.505 78.0747 37.9055 8.28346 27.3709 -3.55565 -132.298 69.0363 -50.3372 -1.06817e-005 1.05815e-005 -0.807626 -15.5636 -78.4508 -11.4282 7.57492e-007 -9.72378e-006 -1.72362 30.193 76.9424 -32.0894 -8.46212 29.9045 3.6297 
47.6738 74.8606 11.1124 0.144743 16.6378 -0.764667 0.183258 2.8377 -0.112938 0.376035 9.67778 -0.248326 0.380346 11.3228 -0.255327 -5.41694 -20.2679 -0.796389 2.70029 -4.79593 -0.219646 51.1437 -6.21904 -3.45425 117.167 25.0157 -26.7986 3.14724e-007 5.3961e-007 -5.17715e-006 30.6123 53.9286 -16.8232 -5.95939e-006 3.18976e-006 -3.00989 8.03023 -4.9512 0.697595 -56.6232 -6.08119 3.65426 -103.408 21.1902 27.6257 -1.59028e-015 4.77083e-015 -0 -24.2506 55.849 12.6357 5.81007e-006 9.10023e-006 3.00729 -8.02985 -4.9509 -0.697568 137.921 69.4983 46.8378 180 1.52566e-005 179.029 159.113 76.2848 -165.086 2.09289e-006 -5.90369e-006 1.63213 -40.4053 78.052 37.8156 8.28426 27.3816 -3.55602 -132.95 68.8503 -49.6507 -1.06817e-005 1.05815e-005 -0.806715 -15.492 -78.1946 -11.3166 7.57492e-007 -9.72378e-006 -1.7133 30.1391 76.9202 -32.0335 -8.4633 29.9208 3.62977 
47.6799 75.0184 11.1824 0.157491 16.5796 -0.768642 0.18285 2.83104 -0.113579 0.375131 9.66446 -0.249548 0.379463 11.3095 -0.256538 -5.45106 -20.2696 -0.812633 2.73044 -4.74599 -0.231711 51.1607 -6.22522 -3.45964 117.29 25.1615 -26.6589 3.14724e-007 5.3961e-007 -5.17715e-006 30.466 53.5059 -16.588 -5.95939e-006 3.18976e-006 -3.00989 8.03023 -4.9512 0.697595 -56.7056 -6.08349 3.66015 -103.477 21.3337 27.4919 -2.54444e-014 4.77083e-015 6.36111e-015 -24.2241 55.4785 12.5106 5.81007e-006 9.10023e-006 3.00729 -8.02985 -4.9509 -0.697568 138.483 69.2879 46.2224 180 1.52566e-005 179.031 159.297 76.0308 -165.301 2.09289e-006 -5.90369e-006 1.62358 -40.3033 78.0285 37.7234 8.28505 27.392 -3.55638 -133.593 68.6611 -48.9738 -1.06817e-005 1.05815e-005 -0.805832 -15.4227 -77.937 -11.2074 7.57492e-007 -9.72378e-006 -1.70295 30.0836 76.8971 -31.9757 -8.46448 29.9371 3.62987 
47.6813 75.1816 11.2588 0.170291 16.5214 -0.77245 0.182345 2.8242 -0.114111 0.374029 9.65079 -0.250565 0.37838 11.2958 -0.257541 -5.48252 -20.27 -0.828248 2.75797 -4.69708 -0.243625 51.1802 -6.23113 -3.46499 117.41 25.3064 -26.5198 3.14724e-007 5.3961e-007 -5.17715e-006 30.3221 53.0833 -16.3559 -5.95939e-006 3.18976e-006 -3.00989 8.03023 -4.9512 0.697595 -56.7867 -6.08482 3.66536 -103.545 21.4764 27.358 -1.11319e-014 -1.59028e-015 -3.18055e-015 -24.1978 55.1076 12.3864 5.81007e-006 9.10023e-006 3.00729 -8.02985 -4.9509 -0.697568 139.034 69.075 45.6183 180 1.52566e-005 179.032 159.477 75.7751 -165.511 2.09289e-006 -5.90369e-006 1.61501 -40.1989 78.0042 37.6285 8.28582 27.4023 -3.55674 -134.226 68.4693 -48.3069 -1.06817e-005 1.05815e-005 -0.804972 -15.3553 -77.678 -11.1001 7.57492e-007 -9.72378e-006 -1.69258 30.0265 76.873 -31.9159 -8.46568 29.9535 3.62999 
47.6704 75.3528 11.3414 0.182891 16.4634 -0.775935 0.181747 2.81709 -0.114481 0.372737 9.63657 -0.251273 0.377102 11.2816 -0.258229 -5.50984 -20.2683 -0.84277 2.78135 -4.64995 -0.255214 51.204 -6.2364 -3.47012 117.525 25.4504 -26.3806 3.14724e-007 5.3961e-007 -5.17715e-006 30.1808 52.6607 -16.127 -5.95939e-006 3.18976e-006 -3.00989 8.03023 -4.9512 0.697595 -56.8659 -6.08452 3.66944 -103.614 21.6171 27.2242 -4.77083e-015 -1.27222e-014 -0 -24.1717 54.737 12.2633 5.81007e-006 9.10023e-006 3.00729 -8.02985 -4.9509 -0.697568 139.573 68.8598 45.0257 180 1.52566e-005 179.034 159.651 75.5176 -165.716 2.09289e-006 -5.90369e-006 1.6064 -40.0917 77.979 37.5308 8.2866 27.4125 -3.55709 -134.848 68.2753 -47.6507 -1.06817e-005 1.05815e-005 -0.804134 -15.2894 -77.4176 -10.9944 7.57492e-007 -9.72378e-006 -1.68219 29.9677 76.8479 -31.854 -8.4669 29.9701 3.63016 
47.6726 75.5098 11.4154 0.195043 16.4061 -0.778941 0.181062 2.80961 -0.114632 0.371265 9.62161 -0.251564 0.375636 11.2667 -0.258497 -5.53153 -20.2638 -0.855734 2.79905 -4.60531 -0.266305 51.2336 -6.24067 -3.47487 117.633 25.5934 -26.2404 3.14724e-007 5.3961e-007 -5.17715e-006 30.0423 52.238 -15.9013 -5.95939e-006 3.18976e-006 -3.00989 8.03023 -4.9512 0.697595 -56.9423 -6.08197 3.67194 -103.682 21.755 27.0905 4.77083e-015 -1.11319e-014 3.18055e-015 -24.1459 54.3674 12.1417 5.81007e-006 9.10023e-006 3.00729 -8.02985 -4.9509 -0.697568 140.1 68.6428 44.4447 180 1.52566e-005 179.036 159.819 75.2584 -165.915 2.09289e-006 -5.90369e-006 1.59774 -39.9816 77.9528 37.4299 8.28737 27.4228 -3.55745 -135.459 68.0794 -47.0055 -1.06817e-005 1.05815e-005 -0.803314 -15.2245 -77.1561 -10.89 7.57492e-007 -9.72378e-006 -1.67179 29.9068 76.8217 -31.79 -8.46814 29.9868 3.6304 
47.6793 75.6557 11.4721 0.206498 16.3497 -0.781314 0.180294 2.80166 -0.114512 0.36962 9.6057 -0.251335 0.373988 11.2508 -0.258239 -5.54611 -20.2556 -0.866674 2.80956 -4.56389 -0.276727 51.2709 -6.2436 -3.47908 117.732 25.7352 -26.0986 3.14724e-007 5.3961e-007 -5.17715e-006 29.907 51.8153 -15.6789 -5.95939e-006 3.18976e-006 -3.00989 8.03023 -4.9512 0.697595 -57.0152 -6.0765 3.6724 -103.75 21.8891 26.9568 4.41391e-031 -7.95139e-015 3.18055e-015 -24.1203 53.9998 12.0217 5.81007e-006 9.10023e-006 3.00729 -8.02985 -4.9509 -0.697568 140.616 68.4241 43.8757 180 1.52566e-005 179.038 159.983 74.9973 -166.109 2.09289e-006 -5.90369e-006 1.58902 -39.8682 77.9254 37.3257 8.28816 27.4331 -3.5578 -136.058 67.8822 -46.3717 -1.06817e-005 1.05815e-005 -0.802512 -15.1603 -76.8934 -10.7865 7.57492e-007 -9.72378e-006 -1.66137 29.8438 76.7944 -31.7235 -8.46941 30.0038 3.6307 
47.6754 75.8111 11.5549 0.217008 16.2946 -0.782897 0.179447 2.79313 -0.114065 0.367811 9.58865 -0.250479 0.372167 11.2337 -0.257351 -5.55209 -20.2429 -0.875126 2.81133 -4.52642 -0.286304 51.3174 -6.24482 -3.48258 117.82 25.876 -25.9543 3.14724e-007 5.3961e-007 -5.17715e-006 29.7751 51.3925 -15.4597 -5.95939e-006 3.18976e-006 -3.00989 8.03023 -4.9512 0.697595 -57.0838 -6.06747 3.67035 -103.818 22.0183 26.8232 -4.77083e-015 0 -0 -24.0949 53.635 11.9036 5.81007e-006 9.10023e-006 3.00729 -8.02985 -4.9509 -0.697568 141.121 68.204 43.3185 180 1.52566e-005 179.04 160.14 74.7343 -166.298 2.09289e-006 -5.90369e-006 1.58022 -39.7512 77.897 37.2181 8.28895 27.4436 -3.55817 -136.645 67.684 -45.7497 -1.06817e-005 1.05815e-005 -0.801724 -15.0964 -76.6296 -10.6838 7.57492e-007 -9.72378e-006 -1.65094 29.7785 76.7658 -31.6547 -8.47072 30.021 3.6311 
47.6712 75.9761 11.6439 0.226326 16.2411 -0.783537 0.178526 2.78392 -0.113238 0.365846 9.57025 -0.24889 0.370178 11.2153 -0.255725 -5.54799 -20.2249 -0.880626 2.80284 -4.49363 -0.294865 51.3749 -6.24397 -3.48519 117.896 26.0156 -25.8068 3.14724e-007 5.3961e-007 -5.17715e-006 29.6469 50.9696 -15.2439 -5.95939e-006 3.18976e-006 -3.00989 8.03023 -4.9512 0.697595 -57.1475 -6.05424 3.66533 -103.886 22.1418 26.6897 9.54166e-015 -1.59028e-014 3.18055e-015 -24.0696 53.2737 11.7875 5.81007e-006 9.10023e-006 3.00729 -8.02985 -4.9509 -0.697568 141.613 67.9829 42.7733 180 1.52567e-005 179.041 160.291 74.4694 -166.481 2.09289e-006 -5.90369e-006 1.57134 -39.6304 77.8673 37.1066 8.28976 27.4544 -3.55854 -137.219 67.4853 -45.1396 -1.06817e-005 1.05815e-005 -0.800948 -15.0324 -76.3649 -10.5816 7.57492e-007 -9.72378e-006 -1.64051 29.7107 76.736 -31.5834 -8.47206 30.0386 3.6316 
47.6758 76.1362 11.7158 0.234206 16.1894 -0.783077 0.177536 2.77394 -0.111975 0.363736 9.5503 -0.246465 0.36803 11.1954 -0.253257 -5.53233 -20.2009 -0.88271 2.78257 -4.46625 -0.302237 51.4449 -6.24069 -3.48676 117.958 26.1539 -25.6551 3.14724e-007 5.3961e-007 -5.17715e-006 29.5226 50.5465 -15.0314 -5.95939e-006 3.18976e-006 -3.00989 8.03023 -4.9512 0.697595 -57.2055 -6.03617 3.6569 -103.954 22.2585 26.5563 -1.11319e-014 4.77083e-015 -0 -24.0445 52.9168 11.6736 5.81007e-006 9.10023e-006 3.00729 -8.02985 -4.9509 -0.697568 142.095 67.761 42.2402 180 1.52567e-005 179.043 160.435 74.2025 -166.658 2.09289e-006 -5.90369e-006 1.56236 -39.5057 77.8363 36.9912 8.2906 27.4654 -3.55892 -137.781 67.2865 -44.5417 -1.06817e-005 1.05815e-005 -0.800182 -14.968 -76.0992 -10.4796 7.57492e-007 -9.72378e-006 -1.63008 29.6404 76.7048 -31.5094 -8.47344 30.0567 3.63222 
47.6786 76.2955 11.7929 0.24099 16.1393 -0.781474 0.176361 2.7633 -0.110267 0.361248 9.52901 -0.243192 0.365491 11.1741 -0.249932 -5.50338 -20.1715 -0.881194 2.74884 -4.44394 -0.308478 51.5287 -6.23504 -3.48738 118.004 26.2909 -25.5004 3.14724e-007 5.3961e-007 -5.17715e-006 29.4023 50.1239 -14.8221 -5.95939e-006 3.18976e-006 -3.00989 8.03023 -4.9512 0.697595 -57.2574 -6.01353 3.64522 -104.022 22.369 26.4224 4.77083e-015 -1.27222e-014 -6.36111e-015 -24.0198 52.5637 11.562 5.81007e-006 9.10023e-006 3.00729 -8.02985 -4.9509 -0.697568 142.564 67.5377 41.7185 180 1.52567e-005 179.045 160.574 73.9332 -166.83 2.09289e-006 -5.90369e-006 1.55327 -39.3768 77.804 36.8718 8.29145 27.4766 -3.55932 -138.332 67.0873 -43.9536 -1.06817e-005 1.05815e-005 -0.799443 -14.9035 -75.8319 -10.3779 7.57492e-007 -9.72378e-006 -1.61962 29.5678 76.6722 -31.4329 -8.47486 30.0749 3.63296 
